<mxfile host="app.diagrams.net" modified="2024-02-07T09:04:02.217Z" agent="Mozilla/5.0 (X11; Ubuntu; Linux x86_64; rv:122.0) Gecko/20100101 Firefox/122.0" etag="FA2EgDCdupp0F5qAe1UD" version="23.1.1" type="github">
  <diagram name="Page-1" id="2YBvvXClWsGukQMizWep">
    <mxGraphModel dx="953" dy="1636" grid="1" gridSize="10" guides="1" tooltips="1" connect="1" arrows="1" fold="1" page="1" pageScale="1" pageWidth="850" pageHeight="1100" math="0" shadow="0">
      <root>
        <mxCell id="0" />
        <mxCell id="1" parent="0" />
        <mxCell id="aM9ryv3xv72pqoxQDRHE-1" value="MQ" style="shape=umlLifeline;perimeter=lifelinePerimeter;whiteSpace=wrap;html=1;container=0;dropTarget=0;collapsible=0;recursiveResize=0;outlineConnect=0;portConstraint=eastwest;newEdgeStyle={&quot;edgeStyle&quot;:&quot;elbowEdgeStyle&quot;,&quot;elbow&quot;:&quot;vertical&quot;,&quot;curved&quot;:0,&quot;rounded&quot;:0};" parent="1" vertex="1">
          <mxGeometry x="40" y="40" width="100" height="300" as="geometry" />
        </mxCell>
        <mxCell id="aM9ryv3xv72pqoxQDRHE-2" value="" style="html=1;points=[];perimeter=orthogonalPerimeter;outlineConnect=0;targetShapes=umlLifeline;portConstraint=eastwest;newEdgeStyle={&quot;edgeStyle&quot;:&quot;elbowEdgeStyle&quot;,&quot;elbow&quot;:&quot;vertical&quot;,&quot;curved&quot;:0,&quot;rounded&quot;:0};" parent="aM9ryv3xv72pqoxQDRHE-1" vertex="1">
          <mxGeometry x="45" y="70" width="10" height="30" as="geometry" />
        </mxCell>
        <mxCell id="aM9ryv3xv72pqoxQDRHE-4" value="" style="html=1;points=[];perimeter=orthogonalPerimeter;outlineConnect=0;targetShapes=umlLifeline;portConstraint=eastwest;newEdgeStyle={&quot;edgeStyle&quot;:&quot;elbowEdgeStyle&quot;,&quot;elbow&quot;:&quot;vertical&quot;,&quot;curved&quot;:0,&quot;rounded&quot;:0};" parent="aM9ryv3xv72pqoxQDRHE-1" vertex="1">
          <mxGeometry x="50" y="120" width="10" height="80" as="geometry" />
        </mxCell>
        <mxCell id="aM9ryv3xv72pqoxQDRHE-5" value=":Object" style="shape=umlLifeline;perimeter=lifelinePerimeter;whiteSpace=wrap;html=1;container=0;dropTarget=0;collapsible=0;recursiveResize=0;outlineConnect=0;portConstraint=eastwest;newEdgeStyle={&quot;edgeStyle&quot;:&quot;elbowEdgeStyle&quot;,&quot;elbow&quot;:&quot;vertical&quot;,&quot;curved&quot;:0,&quot;rounded&quot;:0};" parent="1" vertex="1">
          <mxGeometry x="220" y="40" width="100" height="300" as="geometry" />
        </mxCell>
        <mxCell id="aM9ryv3xv72pqoxQDRHE-6" value="" style="html=1;points=[];perimeter=orthogonalPerimeter;outlineConnect=0;targetShapes=umlLifeline;portConstraint=eastwest;newEdgeStyle={&quot;edgeStyle&quot;:&quot;elbowEdgeStyle&quot;,&quot;elbow&quot;:&quot;vertical&quot;,&quot;curved&quot;:0,&quot;rounded&quot;:0};" parent="aM9ryv3xv72pqoxQDRHE-5" vertex="1">
          <mxGeometry x="45" y="80" width="10" height="170" as="geometry" />
        </mxCell>
        <mxCell id="aM9ryv3xv72pqoxQDRHE-7" value="" style="html=1;verticalAlign=bottom;endArrow=block;edgeStyle=elbowEdgeStyle;elbow=vertical;curved=0;rounded=0;" parent="1" source="aM9ryv3xv72pqoxQDRHE-2" target="aM9ryv3xv72pqoxQDRHE-6" edge="1">
          <mxGeometry x="0.0028" relative="1" as="geometry">
            <mxPoint x="195" y="130" as="sourcePoint" />
            <Array as="points">
              <mxPoint x="180" y="120" />
            </Array>
            <mxPoint as="offset" />
          </mxGeometry>
        </mxCell>
        <mxCell id="aM9ryv3xv72pqoxQDRHE-8" value="return" style="html=1;verticalAlign=bottom;endArrow=open;dashed=1;endSize=8;edgeStyle=elbowEdgeStyle;elbow=vertical;curved=0;rounded=0;" parent="1" source="aM9ryv3xv72pqoxQDRHE-6" target="aM9ryv3xv72pqoxQDRHE-2" edge="1">
          <mxGeometry relative="1" as="geometry">
            <mxPoint x="195" y="205" as="targetPoint" />
            <Array as="points">
              <mxPoint x="190" y="280" />
            </Array>
          </mxGeometry>
        </mxCell>
        <mxCell id="aM9ryv3xv72pqoxQDRHE-9" value="callback" style="html=1;verticalAlign=bottom;endArrow=block;edgeStyle=elbowEdgeStyle;elbow=vertical;curved=0;rounded=0;" parent="1" source="aM9ryv3xv72pqoxQDRHE-6" target="aM9ryv3xv72pqoxQDRHE-4" edge="1">
          <mxGeometry relative="1" as="geometry">
            <mxPoint x="175" y="160" as="sourcePoint" />
            <Array as="points">
              <mxPoint x="190" y="160" />
            </Array>
          </mxGeometry>
        </mxCell>
        <mxCell id="aM9ryv3xv72pqoxQDRHE-10" value="return" style="html=1;verticalAlign=bottom;endArrow=open;dashed=1;endSize=8;edgeStyle=elbowEdgeStyle;elbow=vertical;curved=0;rounded=0;" parent="1" source="aM9ryv3xv72pqoxQDRHE-4" target="aM9ryv3xv72pqoxQDRHE-6" edge="1">
          <mxGeometry relative="1" as="geometry">
            <mxPoint x="175" y="235" as="targetPoint" />
            <Array as="points">
              <mxPoint x="180" y="230" />
            </Array>
          </mxGeometry>
        </mxCell>
        <mxCell id="9v6FqVGq-6nJZpOKNjzK-1" value="&lt;div align=&quot;left&quot;&gt;&lt;font face=&quot;Courier New&quot; style=&quot;font-size: 6px;&quot;&gt;Envelope v2&lt;br&gt;&lt;/font&gt;&lt;/div&gt;&lt;div align=&quot;left&quot;&gt;&lt;font face=&quot;Courier New&quot; style=&quot;font-size: 6px;&quot;&gt;&lt;span style=&quot;white-space: pre;&quot;&gt;&#x9;&lt;/span&gt;XML &lt;br&gt;&lt;/font&gt;&lt;/div&gt;&lt;div align=&quot;left&quot;&gt;&lt;font face=&quot;Courier New&quot; style=&quot;font-size: 6px;&quot;&gt;&amp;nbsp; Headers: &lt;/font&gt;&lt;font face=&quot;5g5iSEYrFaISGpTEV1V_&quot; style=&quot;font-size: 6px;&quot;&gt;&lt;br&gt;&lt;/font&gt;&lt;/div&gt;&lt;blockquote&gt;&lt;div align=&quot;left&quot; title=&quot;Hint: double-click to select code&quot; class=&quot;container&quot;&gt;&lt;div class=&quot;line number1 index0 alt2&quot;&gt;&lt;font face=&quot;ShSiiK6hUvS0UJJPSRek&quot; style=&quot;font-size: 6px;&quot;&gt;&lt;code class=&quot;java plain&quot;&gt;x-request-id&lt;/code&gt;&lt;/font&gt;&lt;/div&gt;&lt;div class=&quot;line number2 index1 alt1&quot;&gt;&lt;font face=&quot;ShSiiK6hUvS0UJJPSRek&quot; style=&quot;font-size: 6px;&quot;&gt;&lt;code class=&quot;java plain&quot;&gt;x-b3-traceid&lt;/code&gt;&lt;/font&gt;&lt;/div&gt;&lt;div class=&quot;line number3 index2 alt2&quot;&gt;&lt;font face=&quot;ShSiiK6hUvS0UJJPSRek&quot; style=&quot;font-size: 6px;&quot;&gt;&lt;code class=&quot;java plain&quot;&gt;x-b3-spanid&lt;/code&gt;&lt;/font&gt;&lt;/div&gt;&lt;div class=&quot;line number4 index3 alt1&quot;&gt;&lt;font face=&quot;ShSiiK6hUvS0UJJPSRek&quot; style=&quot;font-size: 6px;&quot;&gt;&lt;code class=&quot;java plain&quot;&gt;x-b3-sampled&lt;/code&gt;&lt;/font&gt;&lt;/div&gt;&lt;div class=&quot;line number5 index4 alt2&quot;&gt;&lt;font face=&quot;ShSiiK6hUvS0UJJPSRek&quot; style=&quot;font-size: 6px;&quot;&gt;&lt;code class=&quot;java plain&quot;&gt;x-b3-flags&lt;/code&gt;&lt;/font&gt;&lt;/div&gt;&lt;div class=&quot;line number6 index5 alt1&quot;&gt;&lt;font face=&quot;ShSiiK6hUvS0UJJPSRek&quot; style=&quot;font-size: 6px;&quot;&gt;&lt;code class=&quot;java plain&quot;&gt;jms-correlation-id&lt;/code&gt;&lt;/font&gt;&lt;/div&gt;&lt;div class=&quot;line number7 index6 alt2&quot;&gt;&lt;font face=&quot;ShSiiK6hUvS0UJJPSRek&quot; style=&quot;font-size: 6px;&quot;&gt;&lt;code class=&quot;java plain&quot;&gt;jms-message-id&lt;/code&gt;&lt;/font&gt;&lt;/div&gt;&lt;div class=&quot;line number8 index7 alt1&quot;&gt;&lt;font face=&quot;ShSiiK6hUvS0UJJPSRek&quot; style=&quot;font-size: 6px;&quot;&gt;&lt;code class=&quot;java plain&quot;&gt;jms-timestamp&lt;/code&gt;&lt;/font&gt;&lt;/div&gt;&lt;div class=&quot;line number9 index8 alt2&quot;&gt;&lt;font face=&quot;ShSiiK6hUvS0UJJPSRek&quot; style=&quot;font-size: 6px;&quot;&gt;&lt;code class=&quot;java plain&quot;&gt;request-id&lt;/code&gt;&lt;/font&gt;&lt;/div&gt;&lt;/div&gt;&lt;/blockquote&gt;" style="shape=document;whiteSpace=wrap;html=1;boundedLbl=1;" vertex="1" parent="1">
          <mxGeometry x="390" y="-10" width="220" height="300" as="geometry" />
        </mxCell>
      </root>
    </mxGraphModel>
  </diagram>
</mxfile>
